<?xml version="1.0" standalone="no"?>
<!DOCTYPE svg PUBLIC "-//W3C//DTD SVG 20010904//EN"
 "http://www.w3.org/TR/2001/REC-SVG-20010904/DTD/svg10.dtd">
<svg version="1.0" xmlns="http://www.w3.org/2000/svg"
 width="1920.000000pt" height="760.000000pt" viewBox="0 0 1920.000000 760.000000"
 preserveAspectRatio="xMidYMid meet">

<g transform="translate(0.000000,760.000000) scale(0.100000,-0.100000)"
fill="#000000" stroke="none">
<path d="M5275 3193 c-264 -37 -464 -186 -554 -415 -128 -323 3 -697 297 -851
127 -67 197 -82 372 -82 175 0 220 10 355 75 128 61 229 164 293 296 49 100
65 176 65 309 0 109 -3 129 -31 212 -61 178 -169 305 -327 383 -130 65 -318
94 -470 73z m280 -88 c330 -69 531 -383 460 -718 -14 -68 -62 -187 -75 -187
-3 0 -70 84 -147 188 -256 340 -413 457 -633 469 -114 7 -194 -11 -289 -63
-35 -19 -66 -33 -68 -30 -12 12 58 117 117 176 75 76 173 131 282 160 90 23
254 26 353 5z m-282 -291 l47 -16 0 -439 0 -439 -22 0 c-78 1 -261 72 -315
123 l-23 20 0 368 c0 365 0 368 21 380 58 31 202 32 292 3z m-333 -374 c0
-207 -4 -350 -9 -350 -18 0 -83 86 -117 155 -52 107 -67 182 -62 305 3 62 10
117 19 134 14 28 128 106 156 106 10 0 13 -67 13 -350z m474 306 c68 -44 143
-110 217 -193 l59 -67 0 -253 0 -252 -27 -15 c-60 -31 -250 -62 -300 -50 l-23
6 0 429 c0 292 3 429 10 429 6 0 35 -15 64 -34z m412 -446 c49 -67 90 -125 92
-129 8 -22 -157 -171 -190 -171 -4 0 -8 95 -8 210 0 116 4 210 8 210 5 0 49
-54 98 -120z"/>
<path d="M6729 3189 c-255 -37 -467 -214 -547 -457 -22 -66 -25 -96 -26 -207
-1 -149 18 -230 81 -345 49 -88 168 -205 258 -252 132 -68 199 -83 380 -83
148 1 166 3 240 29 119 41 202 91 280 170 127 127 188 283 188 476 -1 115 -11
171 -50 270 -116 293 -439 453 -804 399z m306 -84 c102 -21 222 -84 297 -155
34 -33 59 -62 56 -66 -4 -3 -64 14 -135 37 -121 42 -134 44 -238 44 l-110 -1
-308 -104 c-169 -57 -310 -101 -313 -97 -13 12 54 115 116 177 75 76 172 131
282 160 90 23 254 26 353 5z m150 -191 c44 -13 116 -36 160 -51 79 -28 80 -29
107 -83 14 -30 29 -72 33 -94 7 -34 6 -38 -11 -32 -11 3 -89 25 -174 48 -144
40 -164 43 -280 43 -106 0 -140 -4 -225 -28 -247 -67 -547 -147 -557 -147 -12
0 -5 62 13 117 10 31 13 33 327 137 174 58 342 109 372 114 74 11 139 5 235
-24z m124 -243 c101 -27 188 -55 192 -63 15 -23 11 -148 -4 -148 -8 0 -92 16
-188 35 -267 54 -323 51 -733 -31 -265 -53 -330 -63 -337 -52 -9 14 -12 128
-4 128 3 0 79 20 168 44 255 70 478 129 522 137 80 16 195 1 384 -50z m10
-205 c95 -19 176 -37 178 -40 6 -6 -12 -87 -29 -129 -9 -23 -15 -27 -37 -23
-14 3 -82 13 -151 23 -193 26 -365 21 -635 -16 -126 -18 -257 -35 -290 -38
l-60 -5 -16 33 c-9 19 -19 48 -23 66 -6 25 -4 32 11 37 19 6 596 121 648 130
71 11 238 -5 404 -38z m-44 -197 c88 -11 161 -22 164 -25 8 -7 -15 -47 -58
-101 l-41 -53 -203 7 c-149 4 -269 1 -457 -12 l-254 -18 -53 58 c-29 32 -53
64 -53 71 0 14 6 15 255 49 105 14 219 29 255 34 114 15 280 12 445 -10z m-7
-206 c21 -5 22 -7 8 -22 -26 -29 -157 -89 -231 -107 -92 -22 -259 -22 -351 0
-76 18 -217 84 -215 101 1 17 437 44 611 39 85 -3 165 -8 178 -11z"/>
<path d="M8500 3185 c-270 -60 -467 -248 -526 -501 -25 -106 -16 -296 19 -392
73 -208 226 -354 443 -424 58 -19 92 -22 209 -23 122 0 149 3 210 24 139 47
223 103 318 210 l57 64 0 223 0 224 -275 0 -275 0 0 -115 0 -115 140 0 140 0
0 -53 c0 -49 -3 -56 -42 -93 -86 -81 -165 -109 -293 -102 -230 12 -391 203
-372 443 12 161 104 290 249 348 71 28 211 30 286 4 52 -19 161 -97 189 -137
8 -11 19 -20 25 -20 8 0 138 102 196 155 11 10 5 22 -27 62 -73 93 -200 173
-330 209 -79 23 -260 27 -341 9z"/>
<path d="M9600 2520 l0 -660 279 0 c294 0 358 7 473 50 172 64 322 223 379
400 27 82 36 251 20 346 -36 210 -206 405 -419 479 -109 38 -179 45 -464 45
l-268 0 0 -660z m594 391 c208 -73 321 -299 256 -512 -49 -163 -173 -268 -338
-290 -90 -11 -206 -11 -218 0 -5 6 -8 169 -6 415 l2 406 125 0 c98 0 138 -4
179 -19z"/>
<path d="M10880 3175 c0 -6 118 -189 357 -558 l112 -172 0 -292 1 -293 145 0
145 0 0 292 0 291 61 96 c33 53 87 137 119 186 33 50 77 119 100 155 23 36 68
106 100 155 33 50 67 102 75 118 l16 27 -156 0 -155 0 -43 -67 c-24 -38 -92
-148 -152 -246 -85 -137 -112 -174 -120 -165 -7 7 -76 118 -154 246 l-143 232
-154 0 c-85 0 -154 -2 -154 -5z"/>
<path d="M12397 3173 c-4 -3 -7 -300 -7 -660 l0 -654 143 3 142 3 5 408 5 407
26 -32 c14 -18 142 -193 284 -388 142 -195 267 -365 278 -377 19 -21 29 -23
139 -23 l118 0 -2 658 -3 657 -140 0 -140 0 -5 -405 -5 -405 -165 221 c-91
122 -227 306 -302 408 l-138 186 -113 0 c-63 0 -117 -3 -120 -7z"/>
<path d="M13980 2520 l0 -660 140 0 140 0 0 660 0 660 -140 0 -140 0 0 -660z"/>
<path d="M15052 3168 c-6 -6 -12 -16 -12 -21 0 -4 -27 -76 -60 -160 -32 -84
-118 -305 -190 -492 -73 -187 -156 -402 -186 -478 -30 -76 -54 -142 -54 -148
0 -6 55 -8 142 -7 l143 3 55 145 56 145 246 3 247 2 7 -22 c3 -13 29 -80 56
-150 l49 -128 140 0 c112 0 139 3 139 14 0 12 -46 133 -230 606 -26 69 -97
253 -158 410 l-109 285 -134 3 c-96 2 -138 -1 -147 -10z m219 -533 c38 -110
69 -208 69 -217 0 -16 -14 -18 -150 -18 -82 0 -150 3 -150 8 0 22 146 431 154
429 5 -2 39 -93 77 -202z"/>
<path d="M3920 3114 c-106 -90 -200 -126 -392 -149 l-48 -6 0 -214 c0 -118 4
-216 9 -219 17 -11 229 14 287 34 32 11 63 20 67 20 4 0 6 -60 5 -132 l-3
-133 -172 -3 -173 -2 0 -220 0 -220 585 0 585 0 0 220 0 220 -167 2 -168 3 -3
428 -2 427 -173 -1 -172 0 -65 -55z m324 -22 c5 -9 8 -323 7 -834 l-1 -318
-70 0 -70 0 0 425 c0 370 -2 425 -15 425 -13 0 -15 -56 -17 -422 l-3 -423 -72
-3 -73 -3 0 426 c0 371 -2 425 -15 425 -11 0 -15 -11 -15 -40 0 -35 -5 -43
-38 -65 -21 -14 -64 -34 -95 -45 -68 -24 -197 -44 -209 -32 -5 5 -7 69 -6 142
l3 134 95 18 c115 23 210 66 310 141 l75 57 102 0 c56 0 104 -4 107 -8z m-344
-1002 l0 -151 -72 3 -73 3 -3 88 c-1 48 -7 87 -12 87 -5 0 -11 -39 -12 -87
l-3 -88 -70 0 -70 0 -3 134 c-1 74 0 141 2 148 4 10 42 13 161 13 l155 0 0
-150z m688 -3 l3 -148 -68 3 -68 3 -3 88 c-1 48 -7 87 -12 87 -5 0 -11 -39
-12 -87 l-3 -88 -72 -3 -73 -3 0 144 c0 79 3 147 7 151 4 3 72 5 152 4 l146
-3 3 -148z"/>
<path d="M1642 2648 c-19 -12 -48 -24 -65 -27 -30 -6 -32 -9 -32 -51 0 -48 1
-49 63 -36 l32 8 0 -96 0 -96 -45 0 -45 0 0 -45 0 -45 135 0 135 0 0 45 0 45
-40 0 -39 0 -3 158 -3 157 -30 2 c-16 1 -45 -8 -63 -19z"/>
<path d="M2011 2651 c-97 -52 -91 -199 9 -238 22 -9 40 -20 40 -25 0 -5 -18
-36 -40 -69 l-41 -59 58 0 58 0 61 93 c69 105 89 154 80 202 -18 96 -133 145
-225 96z m113 -77 c26 -25 20 -72 -9 -86 -31 -14 -74 3 -76 29 -4 63 46 97 85
57z"/>
<path d="M2426 2647 c-60 -34 -67 -52 -31 -82 31 -25 55 -32 55 -16 0 14 57
33 78 27 11 -4 23 -14 26 -22 6 -16 -9 -54 -22 -54 -15 0 -126 -90 -143 -117
-12 -17 -19 -46 -19 -75 l0 -48 146 0 145 0 -3 43 -3 42 -83 5 -84 5 24 21
c12 12 44 35 69 52 75 50 97 118 59 180 -38 62 -141 81 -214 39z"/>
<path d="M2908 2623 c-96 -139 -111 -168 -116 -218 -3 -40 1 -57 20 -85 59
-87 190 -92 250 -9 25 33 26 120 3 155 -9 14 -37 35 -61 46 -24 10 -42 23 -40
27 3 4 21 32 41 60 19 29 32 57 29 62 -3 5 -25 9 -49 9 -41 0 -46 -3 -77 -47z
m66 -199 c41 -40 -4 -105 -57 -85 -33 13 -43 46 -23 76 19 29 57 33 80 9z"/>
<path d="M16225 2665 c-5 -2 -22 -6 -37 -9 -30 -7 -88 -52 -88 -69 0 -7 14
-22 32 -34 31 -22 31 -22 56 -2 33 25 78 25 92 -1 9 -17 6 -25 -17 -48 -16
-15 -50 -42 -76 -59 -61 -42 -87 -85 -87 -145 l0 -48 145 0 145 0 0 45 0 45
-85 0 c-48 0 -85 4 -85 10 0 5 27 27 59 49 70 48 98 81 107 127 7 39 -16 86
-56 115 -24 17 -85 31 -105 24z"/>
<path d="M16576 2651 c-53 -35 -70 -75 -74 -175 -3 -80 -1 -96 20 -135 13 -25
35 -53 49 -64 63 -45 180 -26 218 36 63 105 41 287 -42 337 -43 27 -131 27
-171 1z m130 -96 c21 -32 23 -128 5 -173 -19 -47 -57 -54 -89 -17 -22 26 -24
36 -20 105 2 46 9 84 17 93 21 26 68 21 87 -8z"/>
<path d="M17035 2659 c-39 -10 -95 -53 -95 -73 0 -6 14 -21 32 -33 l31 -22 27
21 c39 28 84 22 88 -13 3 -23 -7 -34 -66 -77 -91 -66 -112 -96 -112 -161 l0
-51 146 0 145 0 -3 43 -3 42 -82 3 c-46 2 -83 7 -83 12 0 5 28 28 62 52 77 54
100 85 102 137 2 87 -87 144 -189 120z"/>
<path d="M17498 2653 c-36 -42 -123 -181 -135 -216 -24 -70 12 -146 82 -173
76 -28 159 -3 191 57 17 34 18 106 0 137 -15 28 -64 62 -88 62 -25 0 -23 7 21
74 22 33 38 63 35 68 -10 16 -90 9 -106 -9z m44 -230 c10 -9 18 -24 18 -35 0
-22 -34 -58 -55 -58 -21 0 -55 36 -55 59 0 45 57 66 92 34z"/>
</g>
</svg>
