<?xml version="1.0" encoding="UTF-8"?>
<svg xmlns="http://www.w3.org/2000/svg" xmlns:xlink="http://www.w3.org/1999/xlink" viewBox="0 0 865.41666 324.3641">
  <defs>
    <style>
      .cls-1 {
        fill: url(#linear-gradient-8);
      }

      .cls-2 {
        fill: url(#linear-gradient-7);
      }

      .cls-3 {
        fill: url(#linear-gradient-5);
      }

      .cls-4 {
        fill: url(#linear-gradient-6);
      }

      .cls-5 {
        fill: url(#linear-gradient-9);
      }

      .cls-6 {
        fill: url(#linear-gradient-4);
      }

      .cls-7 {
        fill: url(#linear-gradient-3);
      }

      .cls-8 {
        fill: url(#linear-gradient-2);
      }

      .cls-9 {
        fill: url(#linear-gradient);
      }

      .cls-10 {
        fill: #64686b;
      }

      .cls-11 {
        fill: url(#linear-gradient-10);
      }

      .cls-12 {
        fill: url(#linear-gradient-11);
      }

      .cls-13 {
        fill: url(#linear-gradient-12);
      }

      .cls-14 {
        fill: url(#linear-gradient-13);
      }

      .cls-15 {
        fill: url(#linear-gradient-14);
      }
    </style>
    <linearGradient id="linear-gradient" x1="368.67837" y1="93.80908" x2="368.67837" y2="195.21387" gradientUnits="userSpaceOnUse">
      <stop offset="0" stop-color="#39b4cd"/>
      <stop offset=".99876" stop-color="#2c89b9"/>
    </linearGradient>
    <linearGradient id="linear-gradient-2" x1="446.14761" y1="117.33643" x2="446.14761" y2="195.41113" xlink:href="#linear-gradient"/>
    <linearGradient id="linear-gradient-3" x1="519.81045" y1="117.53369" x2="519.81045" y2="195.41113" xlink:href="#linear-gradient"/>
    <linearGradient id="linear-gradient-4" x1="607.16983" y1="95.5835" x2="607.16983" y2="193.43945" xlink:href="#linear-gradient"/>
    <linearGradient id="linear-gradient-5" x1="684.85782" y1="119.63672" x2="684.85782" y2="220.51562" xlink:href="#linear-gradient"/>
    <linearGradient id="linear-gradient-6" x1="748.56827" y1="98.54102" x2="748.56827" y2="194.88574" xlink:href="#linear-gradient"/>
    <linearGradient id="linear-gradient-7" x1="812.87149" y1="117.33643" x2="812.87149" y2="195.41113" xlink:href="#linear-gradient"/>
    <linearGradient id="linear-gradient-8" x1="142.98177" y1="17.99656" x2="142.98177" y2="314.58697" xlink:href="#linear-gradient"/>
    <linearGradient id="linear-gradient-9" x1="90.63038" y1="97.5424" x2="90.63038" y2="202.69697" xlink:href="#linear-gradient"/>
    <linearGradient id="linear-gradient-10" x1="119.45888" y1="71.41475" x2="119.45888" y2="225.36773" xlink:href="#linear-gradient"/>
    <linearGradient id="linear-gradient-11" x1="151.61499" y1="63.27326" x2="151.61499" y2="228.24753" xlink:href="#linear-gradient"/>
    <linearGradient id="linear-gradient-12" x1="234.78301" y1="88.8041" x2="234.78301" y2="109.60268" xlink:href="#linear-gradient"/>
    <linearGradient id="linear-gradient-13" x1="193.06203" y1="227.59631" x2="193.06203" y2="270.07225" xlink:href="#linear-gradient"/>
    <linearGradient id="linear-gradient-14" x1="231.08926" y1="113.72918" x2="231.08926" y2="222.87498" xlink:href="#linear-gradient"/>
  </defs>
  <g id="Layer_6" data-name="Layer 6">
    <g>
      <path class="cls-9" d="M365.40225,195.21387c-7.11377,0-13.36426-.72266-18.75098-2.16895-5.38818-1.44531-10.38965-3.24121-15.00732-5.38867v-23.26465h2.12158c4.65869,4.16309,9.79688,7.36035,15.4126,9.59473,5.61621,2.23438,11.06543,3.35156,16.34912,3.35156,1.33057,0,3.08838-.15234,5.27246-.45996,2.18408-.30566,3.94092-.78809,5.27295-1.44531,1.62256-.74512,2.99512-1.78516,4.11816-3.12207,1.12354-1.33594,1.68506-3.09863,1.68506-5.29004,0-2.45361-.91553-4.44678-2.74561-5.98047-1.83105-1.5332-4.01514-2.65039-6.55225-3.35205-3.16162-.87598-6.54199-1.7085-10.13965-2.49707-3.59863-.78857-6.95752-1.75195-10.07764-2.8916-7.19727-2.67188-12.35498-6.26514-15.4751-10.77832-3.12012-4.51172-4.68018-10.16357-4.68018-16.95557,0-9.15625,3.68164-16.57129,11.04492-22.24561,7.36328-5.67383,16.55615-8.51074,27.58057-8.51074,5.53223,0,11.03418.59131,16.50488,1.77441,5.46973,1.18262,10.36816,2.78271,14.69531,4.79736v22.34473h-2.05957c-3.45312-3.11035-7.66504-5.73926-12.63574-7.88623-4.97168-2.14648-10.07764-3.22021-15.31934-3.22021-2.03857,0-3.86865.15381-5.49121.45996-1.62207.30664-3.32861.89844-5.1167,1.77441-1.45654.70117-2.71436,1.74121-3.7749,3.12158-1.06104,1.37988-1.59131,2.92432-1.59131,4.6333,0,2.49707.84229,4.47998,2.52686,5.94727,1.68506,1.46875,4.93945,2.79346,9.76562,3.97607,3.12012.74561,6.125,1.46875,9.01709,2.16895,2.89062.70117,5.97949,1.66553,9.26611,2.8916,6.44775,2.4541,11.2417,5.75049,14.3833,9.89062,3.14062,4.14062,4.71143,9.60645,4.71143,16.39697,0,9.72656-3.63037,17.54688-10.88916,23.46191-7.25977,5.91504-17.06641,8.87207-29.42139,8.87207Z"/>
      <path class="cls-8" d="M452.2626,195.41113c-13.22852,0-23.36865-3.3291-30.41943-9.98926-7.05127-6.65918-10.57715-16.14453-10.57715-28.45654,0-12.04834,3.28613-21.66504,9.85938-28.85107,6.57227-7.18457,15.76611-10.77783,27.58057-10.77783,10.73242,0,18.80273,3.0459,24.21094,9.13525,5.40723,6.09033,8.1123,14.80908,8.1123,26.15625v8.28027h-47.86035c.20703,3.41748.89355,6.27637,2.05859,8.57617,1.16406,2.30078,2.7041,4.13086,4.61816,5.48828,1.87207,1.3584,4.05566,2.33301,6.55176,2.92383,2.49609.5918,5.21973.8877,8.17383.8877,2.53711,0,5.0332-.2959,7.48828-.8877,2.4541-.59082,4.7002-1.36816,6.73926-2.33301,1.78809-.83105,3.44141-1.72949,4.96094-2.69434,1.51758-.96289,2.75488-1.81738,3.71289-2.5625h2.30859v18.99219c-1.78906.74609-3.42188,1.43555-4.89844,2.07031-1.47656.63574-3.50488,1.28125-6.08398,1.93848-2.37109.65723-4.81543,1.17188-7.33203,1.54492-2.51758.37207-5.58496.55859-9.2041.55859ZM459.50088,147.0415c-.12402-4.86328-1.19629-8.56494-3.21289-11.10645-2.01855-2.54053-5.10742-3.81152-9.2666-3.81152-4.24316,0-7.56152,1.33691-9.95312,4.00879-2.39258,2.67285-3.71289,6.30908-3.96191,10.90918h26.39453Z"/>
      <path class="cls-7" d="M530.88663,185.61914c-1.49805,1.31445-2.83984,2.49707-4.02539,3.54883-1.18555,1.05078-2.77637,2.10254-4.77344,3.1543-1.95605,1.00879-3.8584,1.77441-5.70898,2.2998-1.85156.52637-4.44141.78906-7.76953.78906-6.19824,0-11.34668-2.19043-15.44336-6.57227-4.09766-4.37988-6.14648-9.90039-6.14648-16.56055,0-5.47656,1.03906-9.90137,3.12012-13.27588,2.0791-3.37305,5.07422-6.0459,8.98535-8.01758,3.95117-2.01465,8.67383-3.41748,14.16504-4.20605s11.39746-1.40186,17.72168-1.84033v-.39404c0-4.07471-1.42578-6.88916-4.27441-8.44531-2.85059-1.5542-7.125-2.33301-12.82324-2.33301-2.58008,0-5.5957.49316-9.04785,1.479-3.4541.98584-6.82324,2.24561-10.10938,3.77881h-1.87207v-17.81006c2.16309-.65723,5.65723-1.43457,10.4834-2.33301,4.8252-.89746,9.69238-1.34717,14.60156-1.34717,12.06348,0,20.85156,2.11426,26.36426,6.3418,5.51172,4.22852,8.26758,10.67969,8.26758,19.35449v50.20947h-21.71484v-7.82031ZM530.88663,174.18359v-15.37842c-3.70312.39453-6.69824.73438-8.98535,1.01904-2.28906.28516-4.53516.84375-6.73926,1.67578-1.91406.70117-3.40137,1.76416-4.46191,3.1875-1.06055,1.42383-1.59082,3.31836-1.59082,5.68457,0,3.46191.88281,5.83887,2.65137,7.13086,1.76758,1.29199,4.37793,1.93848,7.83105,1.93848,1.91309,0,3.86914-.45996,5.86621-1.37988,1.99609-.9209,3.80566-2.21191,5.42871-3.87793Z"/>
      <path class="cls-6" d="M644.32901,163.47168c0,4.86328-.87402,9.13477-2.62109,12.81543-1.74707,3.67969-4.09766,6.72559-7.05078,9.13477-3.49414,2.8916-7.33203,4.95117-11.5127,6.17773s-9.49609,1.83984-15.94336,1.83984h-37.19043v-97.85596h32.82227c6.82227,0,11.99121.27393,15.50684.82129,3.51465.54834,6.81152,1.69873,9.88965,3.4502,3.32812,1.88428,5.81348,4.40332,7.45703,7.55811,1.64355,3.1543,2.46484,6.7915,2.46484,10.90918,0,4.77588-1.13379,9.02637-3.40039,12.74951-2.26758,3.72461-5.39746,6.46338-9.3916,8.21484v.52588c5.74121,1.27148,10.33691,3.86719,13.79102,7.7876,3.45215,3.92188,5.17871,9.21191,5.17871,15.87158ZM614.43936,123.25146c0-1.57764-.38477-3.19775-1.1543-4.86328-.77051-1.66455-1.96582-2.86914-3.58789-3.61475-1.54004-.7002-3.36035-1.08447-5.45996-1.1499-2.10156-.06592-5.23145-.09863-9.3916-.09863h-1.62207v20.70166h2.93262c3.99414,0,6.79102-.04346,8.39258-.13184,1.60156-.08691,3.25488-.54736,4.96094-1.37988,1.87207-.91992,3.16113-2.19043,3.86914-3.81152.70703-1.62061,1.06055-3.50488,1.06055-5.65186ZM620.30557,163.01123c0-3.02295-.58398-5.38867-1.74805-7.09766-1.16504-1.7085-2.91211-3.00049-5.24121-3.87744-1.41504-.56885-3.35938-.88721-5.83398-.95264-2.47559-.06592-5.79395-.09863-9.95312-.09863h-4.30566v24.51318h1.24805c6.07324,0,10.27441-.04297,12.60449-.13184,2.3291-.08691,4.70117-.67871,7.11426-1.77441,2.12109-.96289,3.6709-2.37598,4.64844-4.23828.97656-1.8623,1.4668-3.97607,1.4668-6.34229Z"/>
      <path class="cls-3" d="M721.82999,119.63672l-35.38086,100.87891h-23.46289l10.6084-28.85059-25.70898-72.02832h22.96387l14.72559,46.26611,13.79102-46.26611h22.46387Z"/>
      <path class="cls-4" d="M756.83584,194.88574c-8.90234,0-15.38184-1.92773-19.4375-5.78418-4.05566-3.85449-6.08398-10.16309-6.08398-18.92676v-34.50244h-8.36133v-16.03564h8.36133v-21.0957h21.83984v21.0957h21.0293v16.03564h-21.0293v26.15625c0,2.58545.02051,4.84131.0625,6.76904.04102,1.92871.37402,3.6582.99805,5.19141.58203,1.53418,1.6123,2.75,3.08887,3.64746,1.47656.89844,3.62891,1.34766,6.45898,1.34766,1.16406,0,2.69238-.2627,4.58594-.78906,1.89258-.52539,3.21387-1.00684,3.96289-1.44531h1.87207v16.23242c-2.37109.65723-4.88867,1.17188-7.55078,1.54492-2.66309.37109-5.92773.55859-9.79688.55859Z"/>
      <path class="cls-2" d="M818.98624,195.41113c-13.22852,0-23.36816-3.3291-30.41992-9.98926-7.05078-6.65918-10.57617-16.14453-10.57617-28.45654,0-12.04834,3.28516-21.66504,9.8584-28.85107,6.57324-7.18457,15.7666-10.77783,27.58105-10.77783,10.73242,0,18.80273,3.0459,24.21094,9.13525,5.40723,6.09033,8.1123,14.80908,8.1123,26.15625v8.28027h-47.86035c.20703,3.41748.89355,6.27637,2.05859,8.57617,1.16406,2.30078,2.7041,4.13086,4.61816,5.48828,1.87207,1.3584,4.05566,2.33301,6.55176,2.92383,2.49609.5918,5.21973.8877,8.17383.8877,2.53711,0,5.0332-.2959,7.48828-.8877,2.4541-.59082,4.7002-1.36816,6.73926-2.33301,1.78809-.83105,3.44141-1.72949,4.96094-2.69434,1.51758-.96289,2.75488-1.81738,3.71289-2.5625h2.30859v18.99219c-1.78906.74609-3.42188,1.43555-4.89844,2.07031-1.47656.63574-3.50488,1.28125-6.08398,1.93848-2.37109.65723-4.81543,1.17188-7.33203,1.54492-2.51758.37207-5.58496.55859-9.2041.55859ZM826.22452,147.0415c-.12402-4.86328-1.19629-8.56494-3.21289-11.10645-2.01855-2.54053-5.10742-3.81152-9.2666-3.81152-4.24316,0-7.56152,1.33691-9.95312,4.00879-2.39258,2.67285-3.71289,6.30908-3.96191,10.90918h26.39453Z"/>
    </g>
    <path class="cls-1" d="M264.2242,63.84995c.8851-1.26981-17.64437-20.13065-45.35138-32.63602-28.05282-12.66144-53.033-13.17474-58.49055-13.21393-63.59868-.45636-105.19721,44.60837-109.5449,49.47104-8.06857,9.02426-34.77551,41.14728-37.48478,90.03043-4.0526,73.12097,49.18251,118.92218,53.88437,122.82959,41.17389,34.21693,91.54397,38.64778,127.84988,31.12576,44.56392-9.23294,79.8405-38.99854,77.64705-44.1785-1.77676-4.19592-30.56542,2.00259-36.35403,3.77762-.20968.0643-2.60713.80447-6.43212,1.97998-.0001.00003-4.37545,1.34457-7.41668,2.27487-3.13569.9592-17.53693,5.03836-30.79107,6.35901-21.5349,2.14575-39.35461-1.65643-48.19472-4.01624-22.96636-6.13071-38.30074-16.66757-42.17038-19.41174-12.19103-8.64529-32.91051-26.68854-44.51318-56.89655-3.11243-8.10333-16.99695-46.83563-.33468-87.35294,6.29737-15.3132,14.82462-25.69351,19.07707-30.79108,7.66634-9.18988,22.38391-24.2244,45.51724-34.80728,24.71871-11.30817,46.19842-11.65613,56.56186-11.71399,20.24327-.1131,35.92613,4.02161,43.50912,6.35901,27.0594,8.34097,42.25086,21.93143,43.03188,20.81094Z"/>
    <path class="cls-5" d="M84.61966,202.5722c.796-.4549.64052-2.09189.55933-3.02036-.45498-5.20267-.1586-10.44534-.39202-15.66266-.17723-3.96143.12458-3.17264.16127-18.00882.00125-.50476.00112-.595.00701-.78299.21418-6.83475,4.27382-11.71341,5.92886-13.64755.75163-.87839,1.76532-1.6875,3.16446-2.92734,2.16335-1.91699,2.9545-2.45212,3.54745-3.00153,4.91586-4.55478,2.90749-16.29752,2.90849-16.33231h0c.00001.00012-.20229-1.91327-.22373-2.12546-.46592-4.61084,1.4542-7.94232,1.45425-7.94241,1.12984-1.96033,1.84977-1.52307,3.24409-3.46783.13266-.18503,2.55501-3.66101,2.12544-7.83057-.48874-4.7438-4.573-9.45294-9.84414-10.17972-6.77679-.93439-12.724,4.82373-13.42382,10.51532-.58796,4.78186,2.51183,9.65305,4.20615,10.78787.16568.11096.57149.35605.93964.8461.45237.60214.71783,1.40106.78305,3.91528.02422.93384.03633,1.40073,0,2.01358-.30989,5.22656.62916,7.76236-.33559,11.18652-.47639,1.69083-1.43624,3.02893-3.35596,5.70511-2.78803,3.88666-4.3376,4.6279-6.60004,7.60684-2.37515,3.12732-3.44704,5.97037-4.29911,8.23038-1.53891,4.08176-1.17995,11.92825-.39923,27.45462.20743,4.12518.39859,7.2027,2.34917,10.51532,2.14581,3.64417,6.06556,6.96948,7.49497,6.15259Z"/>
    <path class="cls-11" d="M112.70965,225.22388c.18419-.22003.02872-.62689.0012-.70691-.90473-2.6312.28409-48.1315-.07-55.09048-.00472-.09268-.01855-.35223-.00086-.69669.1151-2.24149,1.34481-3.76837,2.43809-5.29413,2.12171-2.96097,1.32933-2.56784,3.20435-5.08517,2.60811-3.50156,3.40879-3.23056,5.99074-6.33902,1.40964-1.69708,4.86999-5.96484,5.78176-12.05115.13979-.93311.17925-1.63913.20898-2.2291.64793-12.8559.0194-36.89948-.46866-40.20032-.01313-.08878-.05835-.38031-.01895-.75964.15437-1.48639,1.41548-2.46814,1.88081-2.85605.00008-.00006,1.66744-1.38995,3.62231-4.80652,1.76818-3.09027,1.20461-6.54437,1.0449-7.52325-.14281-.87524-.92522-5.67065-5.22448-8.42883-4.27182-2.74057-9.68827-1.97665-13.30501.41797-.87334.57825-4.15541,2.91583-5.08516,7.10529-.93628,4.21887.93288,8.42328,2.43809,10.23999.24693.29803,1.12931,1.31058,2.08979,2.85605.3918.63043.90693,1.46686,1.32353,2.50775.68811,1.71927.79223,3.20883.83592,3.97061.40367,7.03922.17819,30.95361.27996,34.54758.00285.10049.01167.38715-.00132.76993-.07223,2.12881-.71381,4.12857-1.81115,6.13004-1.27785,2.33069-2.67857,3.76053-5.0155,6.19974-3.76106,3.92569-5.64158,5.88852-6.19972,6.548-2.92328,3.45413-3.49579,7.53339-3.90095,16.16107-.99341,21.15445.36875,40.91745.13151,45.55603-.00534.10434-.02085.38412.0078.7677.26965,3.60983,3.66688,5.9162,4.59754,6.548.97176.65973,1.78562.95065,3.41333,1.53253.85045.30402,1.56568.50223,1.81115.20898Z"/>
    <path class="cls-12" d="M129.924,228.15018c.82349.10678,2.1113.27374,3.31706-.43265,2.07865-1.21777,2.41845-4.15527,2.64403-6.10532.06095-.52686.07268-1.40884.09615-3.17282.0313-2.35254.00236-4.08664,0-4.23047-.09978-6.07239.325-27.96866.33651-32.68985.00737-3.02142.01105-4.53214.00086-4.711-.00511-.08969-.01266-.21317-.00086-.38477.10976-1.59628,1.56929-2.64069,2.01908-2.98053,2.91206-2.20016,8.01156-8.49744,9.42237-10.23962,2.10387-2.59802,3.76132-4.6835,4.8554-7.9321.94635-2.80994,1.23705-5.79483,1.34605-6.97061.09279-1.00092.13251-1.87021.14422-4.51889.0276-6.24066-.14064-13.22974-.23618-18.12219-.00285-.146-.00513-.26688-.00419-.43411.01796-3.20367,1.1152-5.66086,1.63449-6.68219.21271-.41837.72019-1.36627,2.25945-3.26898,3.25251-4.02051,4.96029-4.70355,7.25907-7.54752,1.72656-2.13602,2.5859-4.00296,3.50935-6.00916.62385-1.35532,2.91074-6.66333,3.12476-11.5376.02273-.5177.04626-1.58813.57688-2.8363.58849-1.38428,1.36581-1.96417,2.49981-3.22092.86172-.95499,2.39291-2.65192,3.26898-4.71118,1.07748-2.53265.85046-4.87637.76917-5.62457-.38276-3.52307-2.26051-5.83014-2.93247-6.58606-2.47466-2.78387-5.47658-3.52063-6.05723-3.65356-5.53123-1.2663-9.8179,2.24582-10.28769,2.64404-.80366.68121-3.67805,3.30051-4.1343,7.40329-.45684,4.108,1.73834,7.65564,2.35559,8.6532.70945,1.14655,1.19707,1.57645,1.87486,3.02859.49984,1.07089,1.34216,2.92459,1.34605,5.33615.00442,2.74066-1.07638,4.74951-1.82679,6.10532-.65455,1.18262-1.4028,2.18121-3.74972,4.61502-3.85653,3.99933-4.02146,3.56924-5.81687,5.62457-.99102,1.13449-4.26372,4.9545-5.48036,9.95117-.25102,1.03091-.58024,2.79257-.7211,4.85541-.10599,1.55219-.06723,2.71677-.04807,3.31705.00045.0141.11031,6.46701.33004,19.37286.00615.36111.00696.42264.00647.52948-.0054,1.18378-.1558,4.75021-2.98055,9.61469-2.13822,3.68222-4.69546,6.19089-7.49943,8.94162-1.53248,1.50339-1.99184,1.79773-3.07669,3.07669-1.29946,1.53198-3.26703,3.89993-4.23045,7.40329-.34258,1.24576-.43671,2.24066-.62495,4.23044-.2941,3.10867-.20841,5.44077-.19229,5.96109.16218,5.23651-.38137,31.73669-.62495,37.73755-.01785.43979-.07282,1.72351.62495,3.02863.96761,1.80978,2.98917,2.92462,4.90348,3.17282Z"/>
    <path class="cls-13" d="M246.65435,90.32666c-.37287-.57968-1.44672-.76703-3.59443-1.14175-1.65372-.28854-3.52357-.61478-5.86686-.14111-3.55157.7179-5.7948,2.789-6.57478,3.52792-1.77598,1.68246-2.63798,3.37677-3.36758,4.81082-1.55479,3.056-1.12294,3.97235-2.87542,7.97665-1.26748,2.89612-1.93739,3.43134-1.61469,3.89005.97763,1.38962,8.57906-1.45667,14.64309-6.11441,5.49795-4.22296,10.6469-10.63757,9.25066-12.80817Z"/>
    <path class="cls-14" d="M97.77114,247.45596c.38337-.63129,3.75883,1.31577,11.64869,3.46982,4.63931,1.2666,8.11476,1.86087,8.83979,1.98276,4.43557.74573,8.02989.97696,10.82254,1.15662,1.618.1041,3.64293.23114,6.36134.24783,1.82544.0112,4.73103.02139,8.50933-.33044,3.401-.31671,5.93734-.78058,7.51795-1.07401,2.59758-.48221,6.73199-1.36438,11.73131-2.97412,4.40382-1.418,7.58901-2.79208,9.17025-3.46982,8.27262-3.54572,20.70603-8.87476,32.21978-12.64008,6.03553-1.97379,10.02092-3.27713,15.86205-4.3786,5.8109-1.09576,15.41479-2.82492,27.84119-1.15659,10.94539,1.46951,18.41006,4.81363,26.10629,8.26147,2.66879,1.19559,5.4117,2.60245,8.34409,4.95688,2.65349,2.13049,5.95007,5.26138,5.61781,5.70044-.07993.10562-.34344.02063-.63156-.06522-.75606-.22525-3.44865-.64722-8.83385-1.49118-.00009-.00003-.32637-.05115-1.02518-.15494-9.42197-1.39938-21.57329-.57706-21.57339-.57706-4.80545.3252-10.84193.76004-18.5993,2.57458-7.57091,1.77094-13.13367,4.00293-19.30952,6.4809-7.45309,2.99045-7.38561,3.49716-14.91495,6.48093-5.08704,2.0159-10.24141,4.03918-17.22321,5.85944-9.16183,2.38861-16.41906,3.11063-18.91002,3.32922-9.46163.83026-16.81115.24588-19.79781-.0444-3.97911-.38672-10.48351-1.05365-18.64368-3.55118-9.90678-3.03207-16.8608-7.1116-20.41927-9.41061-5.74627-3.71249-11.22758-8.33145-10.71067-9.18265Z"/>
    <path class="cls-15" d="M308.59402,199.13281c-.37091-5.53064-1.38379-9.52496-2.17188-12.77063-1.46167-6.02002-2.65399-11.80316-5.0387-23.36938-1.17126-5.68085-1.75757-8.52118-2.17188-10.94623-1.06586-6.23822-1.65552-11.40955-3.73566-19.1994-.13239-.49567-.19855-.74353-.26062-.95563-.6723-2.29724-2.61328-8.60883-8.60065-13.37872-1.66254-1.32452-5.91913-4.62561-11.64124-4.77814-.47278-.01257-.828-.00031-.97137.00452-10.53687.35443-72.30811.5542-83.90552.08234-.2395-.0097-.84534-.03552-1.65057,0-5.56238.24561-9.73706,2.93762-11.12,3.90942-.79498.55859-6.73956,4.86102-8.57233,12.28339-.09607.38916-.15527.68304-.18652.83813-.68329,3.38556-3.11963,14.22687-7.99243,35.90948-2.09149,9.30664-3.54132,18.77472-6.18372,27.94019-.13025.45178-.47998,1.6535-.69501,3.30127-.21265,1.62927-1.16632,8.93579,3.47498,15.72437.79913,1.16888,6.08008,8.63068,15.20312,9.12189,5.42578.29218,9.47406-2.02856,10.59875-2.69312,3.66718-2.16693,5.672-5.03406,6.8631-6.77625,2.57697-3.76923,2.34094-5.59924,6.0813-11.815,1.20435-2.00146,1.80652-3.00214,2.51935-3.82251.44446-.51147,5.37592-6.01599,12.77063-6.16809.2934-.00604.48651-.00153.78613.00446,6.61462.13147,26.88391.19531,36.48322.0824.60413-.00714,2.0022-.02478,3.82251.26062,1.31848.20667,4.79828.78741,8.16626,3.04065,2.63892,1.76544,4.01129,3.75623,5.73376,6.25494,1.26367,1.83319,2.60895,4.40759,5.29938,9.55627.94403,1.80658.83527,1.64038,1.04248,1.99811.72198,1.24634,3.14105,5.42218,7.12378,7.81879,6.07635,3.65643,13.09235,1.54663,14.76874,1.04248,5.46875-1.64453,8.62512-5.06818,9.29559-5.82062.6286-.70544,3.11212-3.59717,4.34375-8.16626.47906-1.77716.8233-4.01038.52124-8.51373ZM215.7811,156.20984c0,1.65686-1.34314,3-3,3h-9.52985v9.52991c0,1.65686-1.34314,3-3,3h-4.57849c-1.65686,0-3-1.34314-3-3v-9.52991h-9.52991c-1.65686,0-3-1.34314-3-3v-4.57849c0-1.65686,1.34314-3,3-3h9.52991v-9.52985c0-1.65686,1.34314-3,3-3h4.57849c1.65686,0,3,1.34314,3,3v9.52985h9.52985c1.65686,0,3,1.34314,3,3v4.57849ZM262.76181,136.6557c3.30701,0,5.98785,2.68085,5.98785,5.98785s-2.68085,5.98779-5.98785,5.98779-5.98785-2.68085-5.98785-5.98779,2.68085-5.98785,5.98785-5.98785ZM250.78616,160.60699c-3.30701,0-5.98785-2.68079-5.98785-5.98779s2.68085-5.98785,5.98785-5.98785,5.98779,2.68085,5.98779,5.98785-2.68079,5.98779-5.98779,5.98779ZM262.76181,172.5827c-3.30701,0-5.98785-2.68085-5.98785-5.98785s2.68085-5.98785,5.98785-5.98785,5.98785,2.68085,5.98785,5.98785-2.68085,5.98785-5.98785,5.98785ZM274.73746,160.60699c-3.30701,0-5.98779-2.68079-5.98779-5.98779s2.68079-5.98785,5.98779-5.98785,5.98785,2.68085,5.98785,5.98785-2.68085,5.98779-5.98785,5.98779Z"/>
  </g>
  <g id="Layer_7" data-name="Layer 7">
    <path class="cls-10" d="M351.15665,282.51367c-3.28271,0-6.16699-.29883-8.65283-.89551-2.48584-.5957-4.79395-1.33691-6.9248-2.22266v-9.59863h.979c2.14941,1.71777,4.52051,3.03711,7.1123,3.95898,2.59131.92188,5.10596,1.38281,7.54395,1.38281.61426,0,1.42529-.06348,2.43311-.19043,1.00781-.12598,1.81885-.3252,2.43311-.59668.74854-.30664,1.38232-.73535,1.90039-1.28711.51855-.55176.77783-1.2793.77783-2.18262,0-1.0127-.42285-1.83496-1.26709-2.46777-.84521-.63281-1.85303-1.09375-3.02344-1.38281-1.45898-.36133-3.01904-.70508-4.6792-1.03027-1.66064-.3252-3.21045-.72266-4.65039-1.19336-3.32129-1.10156-5.70117-2.58398-7.14111-4.44629-1.43945-1.86133-2.15918-4.19336-2.15918-6.99512,0-3.77832,1.69873-6.83691,5.09619-9.17871,3.39795-2.34082,7.64014-3.51074,12.72754-3.51074,2.55273,0,5.09131.24414,7.61572.73145,2.52441.48828,4.78467,1.14844,6.78125,1.97949v9.21875h-.9502c-1.59375-1.2832-3.53711-2.36719-5.83105-3.25391-2.29395-.88477-4.6499-1.32812-7.06885-1.32812-.94092,0-1.78516.06348-2.53369.18945-.74902.12695-1.53613.37109-2.36133.73242-.67236.28906-1.25244.71875-1.74219,1.28809-.48926.56934-.73389,1.20605-.73389,1.91113,0,1.03027.38867,1.84863,1.16602,2.4541s2.2793,1.15234,4.50635,1.64062c1.43945.30762,2.82617.60547,4.16064.89453,1.33398.28906,2.75928.6875,4.27588,1.19336,2.97559,1.01172,5.1875,2.37207,6.63721,4.08008,1.44922,1.70801,2.17383,3.96387,2.17383,6.76465,0,4.01367-1.6748,7.24023-5.02441,9.67969-3.3501,2.44043-7.87549,3.66113-13.57666,3.66113ZM375.25772,281.78125v-40.37305h28.99561v7.70117h-18.28418v7.07617h16.84473v7.7002h-16.84473v10.19531h18.28418v7.7002h-28.99561ZM451.18838,281.78125h-13.12988l-11.94971-14.80371h-3.8584v14.80371h-10.71143v-40.37305h17.24756c2.37988,0,4.45361.14062,6.21924.4209,1.7666.28027,3.39844.86328,4.89551,1.74902,1.53516.92188,2.75391,2.0918,3.65723,3.51074.90137,1.41895,1.35254,3.22266,1.35254,5.40918,0,3.09082-.73828,5.59961-2.2168,7.52441s-3.45508,3.45703-5.93164,4.5957l14.42578,17.16309ZM433.8544,253.77246c0-1.01172-.20605-1.88477-.61914-2.61621-.41309-.73242-1.09912-1.29688-2.05859-1.69434-.67236-.27148-1.4209-.44336-2.24609-.51562-.82568-.07227-1.85254-.1084-3.08105-.1084h-3.59912v10.87305h3.08105c1.49707,0,2.76855-.08594,3.81494-.25781s1.93408-.53809,2.66357-1.09863c.69092-.50586,1.20459-1.11133,1.54053-1.81641s.50391-1.62695.50391-2.76562ZM509.66983,241.4082l-10.85547,40.37305h-11.80566l-6.88184-24.97168-6.67969,24.97168h-11.80566l-10.85547-40.37305h11.17188l5.90234,27.08691,7.19922-27.08691h10.68262l6.82422,27.08691,6.21973-27.08691h10.88379ZM536.33389,281.78125h-23.09277v-7.0498h6.16211v-26.27344h-6.16211v-7.0498h23.09277v7.0498h-6.16211v26.27344h6.16211v7.0498ZM556.71963,282.51367c-3.28223,0-6.16699-.29883-8.65234-.89551-2.48633-.5957-4.79492-1.33691-6.92578-2.22266v-9.59863h.97949c2.14941,1.71777,4.52051,3.03711,7.1123,3.95898s5.10547,1.38281,7.54395,1.38281c.61426,0,1.42578-.06348,2.43359-.19043,1.00781-.12598,1.81836-.3252,2.43262-.59668.74902-.30664,1.38184-.73535,1.90039-1.28711s.77734-1.2793.77734-2.18262c0-1.0127-.42188-1.83496-1.2666-2.46777s-1.85254-1.09375-3.02344-1.38281c-1.45898-.36133-3.01855-.70508-4.67871-1.03027-1.66113-.3252-3.21094-.72266-4.65039-1.19336-3.32129-1.10156-5.70215-2.58398-7.1416-4.44629-1.43945-1.86133-2.15918-4.19336-2.15918-6.99512,0-3.77832,1.69824-6.83691,5.09668-9.17871,3.39746-2.34082,7.63965-3.51074,12.72656-3.51074,2.55273,0,5.0918.24414,7.61621.73145,2.52441.48828,4.78418,1.14844,6.78125,1.97949v9.21875h-.9502c-1.59375-1.2832-3.53711-2.36719-5.83105-3.25391-2.29395-.88477-4.65039-1.32812-7.06836-1.32812-.94141,0-1.78613.06348-2.53418.18945-.74902.12695-1.53613.37109-2.36133.73242-.67188.28906-1.25293.71875-1.74219,1.28809s-.73438,1.20605-.73438,1.91113c0,1.03027.38867,1.84863,1.16602,2.4541.77832.60547,2.2793,1.15234,4.50684,1.64062,1.43945.30762,2.82617.60547,4.16113.89453,1.33398.28906,2.75879.6875,4.27539,1.19336,2.97559,1.01172,5.1875,2.37207,6.6377,4.08008,1.44922,1.70801,2.17383,3.96387,2.17383,6.76465,0,4.01367-1.67578,7.24023-5.02441,9.67969-3.35059,2.44043-7.87598,3.66113-13.57715,3.66113ZM641.4042,281.78125h-12.81348l-3.74316-3.41602c-2.01562,1.53613-4.0791,2.62988-6.19141,3.28027-2.11133.65137-4.31836.97656-6.62207.97656-4.95312,0-8.84473-1.15234-11.67676-3.45703-2.83105-2.30469-4.24707-5.30957-4.24707-9.01562,0-1.57227.22559-2.91895.67676-4.04004.45117-1.12012,1.04102-2.13281,1.77148-3.03711.6709-.84863,1.46289-1.59473,2.375-2.23633.91113-.6416,1.7998-1.19727,2.66309-1.66797-.8252-.61426-1.55957-1.21484-2.20215-1.80273-.64355-.58691-1.21484-1.24219-1.71387-1.96582-.49902-.70508-.88281-1.46875-1.15137-2.29102s-.40332-1.78516-.40332-2.8877c0-1.1748.24902-2.32227.74902-3.44336.49902-1.12109,1.32422-2.16016,2.47656-3.11816,1.07422-.88574,2.57227-1.62207,4.49121-2.20996,1.91992-.58691,4.15625-.88086,6.70898-.88086,2.28516,0,4.26172.22559,5.93164.67773,1.6709.45215,3.07129,1.05762,4.2041,1.81641,1.09473.75879,1.93457,1.67676,2.51953,2.75195.58594,1.07617.87891,2.2373.87891,3.48438,0,.7959-.12988,1.69922-.38867,2.71094-.25977,1.0127-.69629,1.92578-1.31055,2.73926-.74902.99414-1.72266,1.88379-2.92285,2.66992-1.19922.78711-2.7207,1.46973-4.56348,2.04785l8.23535,7.4834v-8.73047h10.04883v3.00879c0,.74219-.08203,1.65918-.24512,2.75293s-.37891,2.0293-.64746,2.80566c-.28809.88574-.68652,1.79883-1.19531,2.73828-.50879.94043-1.15625,1.83496-1.94336,2.68457l10.25098,9.0293v.54199ZM620.09659,273.78223l-11.51855-10.27539c-.30664.41602-.64746,1.09766-1.02148,2.04688-.375.94922-.56152,1.94824-.56152,2.99609,0,1.19238.21582,2.22754.64746,3.10449s.99316,1.60449,1.68457,2.18262c.69141.5791,1.46387,1.0127,2.31836,1.30176.85352.28906,1.71289.43359,2.57715.43359,1.18945,0,2.24023-.13086,3.15234-.39355.91211-.26172,1.81934-.72754,2.72168-1.39648ZM615.71963,250.49219c0-.9043-.12988-1.63574-.38867-2.19629-.25977-.56055-.59082-.99414-.99316-1.30176-.36523-.28906-.76855-.46973-1.20996-.54199s-.78711-.1084-1.03613-.1084c-.28809,0-.60449.03613-.9502.1084s-.73926.26172-1.18066.56934c-.3457.23438-.65332.62305-.92188,1.16602-.26855.54199-.40332,1.18359-.40332,1.9248,0,1.06641.37891,2.06543,1.1377,2.99609.75781.93066,1.80957,1.9209,3.15332,2.96875.9209-.79492,1.61719-1.64453,2.08691-2.54883.4707-.90332.70605-1.91602.70605-3.03613ZM682.81045,281.78125h-23.09277v-7.0498h6.16211v-26.27344h-6.16211v-7.0498h23.09277v7.0498h-6.16211v26.27344h6.16211v7.0498ZM698.18741,281.78125v-32.67188h-12.66992v-7.70117h36.1084v7.70117h-12.66992v32.67188h-10.76855Z"/>
  </g>
</svg>